<svg width="24" height="24" viewBox="0 0 24 24" fill="none" xmlns="http://www.w3.org/2000/svg">
<path d="M20.53 10.0713C20.5588 6.68756 17.6769 3.58559 14.1058 3.15665C14.0347 3.14823 13.9574 3.13541 13.8754 3.12184C13.6986 3.09255 13.5158 3.06244 13.3313 3.06244C12.5994 3.06244 12.4038 3.57658 12.3523 3.88321C12.3022 4.18135 12.3499 4.43171 12.494 4.62766C12.7364 4.95725 13.1629 5.01576 13.5055 5.06264C13.6059 5.0765 13.7006 5.0894 13.7799 5.10721C16.9884 5.82415 18.0688 6.95133 18.5968 10.1326C18.6097 10.2103 18.6155 10.3061 18.6217 10.4077C18.6447 10.788 18.6927 11.5792 19.5433 11.5792H19.5434C19.6142 11.5792 19.6903 11.573 19.7695 11.561C20.5616 11.4406 20.5368 10.7174 20.5249 10.3699C20.5215 10.2721 20.5183 10.1795 20.5266 10.1179C20.5288 10.1024 20.5299 10.0868 20.53 10.0713Z" fill="#604B9E"/>
<path d="M13.1235 1.91463C13.2186 1.92149 13.3085 1.92805 13.3834 1.93953C18.6522 2.74979 21.0752 5.24609 21.7467 10.556C21.7581 10.6463 21.7599 10.7564 21.7618 10.873C21.7685 11.2878 21.7823 12.1509 22.7091 12.1687L22.7379 12.169C23.0285 12.169 23.2597 12.0814 23.4251 11.9083C23.7137 11.6065 23.6935 11.1582 23.6773 10.7979C23.6733 10.7095 23.6695 10.6263 23.6705 10.5534C23.7375 5.12266 19.0366 0.198112 13.6108 0.0149814C13.5883 0.014236 13.5668 0.0154286 13.5451 0.0184845C13.5345 0.0200497 13.5147 0.0219876 13.4809 0.0219876C13.4268 0.0219876 13.3602 0.0172919 13.2896 0.0125217C13.2043 0.00670807 13.1075 0 13.0094 0C12.1454 0 11.9811 0.614161 11.9601 0.980273C11.9116 1.82638 12.7302 1.88594 13.1235 1.91463Z" fill="#604B9E"/>
<path d="M21.4927 17.4189C21.3806 17.3333 21.2648 17.2448 21.1564 17.1574C20.5811 16.6945 19.9691 16.2678 19.3772 15.8551C19.2544 15.7695 19.1316 15.6839 19.0092 15.598C18.251 15.0655 17.5694 14.8067 16.9254 14.8067C16.0581 14.8067 15.3019 15.2859 14.6777 16.2309C14.4012 16.6499 14.0657 16.8536 13.6523 16.8536C13.4078 16.8536 13.13 16.7838 12.8267 16.6462C10.3796 15.5364 8.6321 13.835 7.63282 11.589C7.14977 10.5035 7.30636 9.79396 8.1565 9.21647C8.63926 8.88881 9.53784 8.27883 9.47419 7.11073C9.40211 5.78424 6.47531 1.79301 5.24214 1.3397C4.72003 1.1477 4.17146 1.14591 3.60872 1.33523C2.19108 1.8118 1.17377 2.64874 0.666488 3.75542C0.176277 4.82476 0.198413 6.08037 0.730513 7.3865C2.26875 11.1629 4.43143 14.4553 7.15871 17.1723C9.82823 19.832 13.1093 22.0106 16.9107 23.6475C17.2533 23.7949 17.6127 23.8753 17.8752 23.934C17.9646 23.9541 18.0418 23.9712 18.0981 23.9867C18.129 23.9951 18.1609 23.9996 18.1929 23.9999L18.2229 24.0001C18.2229 24.0001 18.2229 24.0001 18.2231 24.0001C20.011 24.0001 22.1578 22.3663 22.8171 20.5037C23.3948 18.8727 22.3401 18.0666 21.4927 17.4189Z" fill="#604B9E"/>
<path d="M13.9145 6.22837C13.6084 6.23613 12.9713 6.25193 12.7478 6.90075C12.6432 7.20395 12.6558 7.46721 12.7851 7.68321C12.9748 8.00012 13.3384 8.09724 13.6691 8.15053C14.8684 8.34298 15.4844 9.00619 15.6076 10.2375C15.6648 10.8116 16.0515 11.2125 16.5479 11.2125C16.5845 11.2125 16.6221 11.2104 16.6594 11.2058C17.2564 11.1348 17.5459 10.6962 17.5197 9.90224C17.5292 9.07364 17.0956 8.13295 16.3581 7.38365C15.618 6.63205 14.7259 6.20877 13.9145 6.22837Z" fill="#604B9E"/>
</svg>
